<?xml version="1.0" encoding="utf-8"?>
<!-- Generator: Adobe Illustrator 21.0.2, SVG Export Plug-In . SVG Version: 6.00 Build 0)  -->
<svg version="1.1" id="Layer_1" xmlns="http://www.w3.org/2000/svg" xmlns:xlink="http://www.w3.org/1999/xlink" x="0px" y="0px"
	 width="160px" height="110px" viewBox="0 0 160 110" enable-background="new 0 0 160 110" xml:space="preserve">
<polygon fill="#DADCE0" points="116.1,11.29 132.78,84.7 24.4,109 7.72,35.59 "/>
<polygon fill="#FFFFFF" stroke="#E0E0E0" stroke-width="0.5" stroke-miterlimit="10" points="111.95,8.4 128.63,81.81 20.24,106.11 
	3.57,32.7 "/>
<polygon fill="#F1F3F4" points="107.78,15.65 121.74,77.03 24.41,98.86 10.46,37.48 "/>
<g>
	<g>
		<path fill="#EA4335" d="M95.26,76.69l49.47-0.1c6.45-0.01,11.69,5.2,11.7,11.66v0c0.01,6.45-5.2,11.69-11.66,11.7l-49.47,0.1
			c-6.45,0.01-11.69-5.2-11.7-11.66v0C83.59,81.94,88.81,76.7,95.26,76.69z"/>
		<polygon fill="#EA4335" points="101.44,72.55 95.27,80.53 107.64,80.5 		"/>
	</g>
	
		<text transform="matrix(1 -2.100000e-03 2.100000e-03 1 104.3746 93.6474)" fill="#FFFFFF" font-family="'PingFangTC-Semibold-B5pc-H'" font-size="14.9912px">• • •</text>
</g>
<path id="Shape_6_" fill="#FFFFFF" d="M115.64,52.47l-27.63,6.22c0.61-1.84,2.12-3.26,4-3.79c-0.1-1.25,0.3-2.49,1.13-3.44
	c0.83-0.95,2.01-1.54,3.27-1.63c0.38-2.09,1.96-3.77,4.03-4.31c2.08-0.54,4.27,0.17,5.62,1.81c1.28-0.46,2.69-0.35,3.88,0.29
	c1.19,0.64,2.03,1.76,2.32,3.07c0.03,0.15,0.06,0.3,0.08,0.45C113.58,51.15,114.76,51.62,115.64,52.47z"/>
<path id="Shape_10_" fill="#FFFFFF" d="M84.59,80.28L25.01,93.69c1.32-3.97,4.56-7.04,8.63-8.17c-0.23-2.69,0.65-5.37,2.44-7.42
	c1.79-2.06,4.33-3.32,7.06-3.51c0.82-4.5,4.22-8.13,8.69-9.28c4.48-1.16,9.21,0.37,12.11,3.91c2.76-0.99,5.8-0.76,8.36,0.63
	c2.56,1.39,4.38,3.8,5.01,6.62c0.07,0.32,0.13,0.65,0.17,0.98C80.15,77.43,82.69,78.45,84.59,80.28z"/>
<g>
	<g enable-background="new    ">
		
			<rect id="XMLID_17_" x="56.24" y="41.85" transform="matrix(0.9758 -0.2187 0.2187 0.9758 -10.965 17.2756)" fill="#FF6F00" width="32.66" height="32.66"/>
		
			<rect id="XMLID_16_" x="56.24" y="41.85" transform="matrix(0.9758 -0.2187 0.2187 0.9758 -10.965 17.2756)" fill="#FF6F00" enable-background="new    " width="32.66" height="32.66"/>
	</g>
	<g>
		
			<rect x="17.23" y="17.12" transform="matrix(0.9758 -0.2187 0.2187 0.9758 -6.5023 8.1474)" fill="#FFCA28" width="32.66" height="32.66"/>
		<g>
			
				<rect id="XMLID_51_" x="49.1" y="9.98" transform="matrix(0.9758 -0.2187 0.2187 0.9758 -4.1696 14.9429)" fill="#FFBC00" width="32.66" height="32.66"/>
			
				<rect id="XMLID_50_" x="49.1" y="9.98" transform="matrix(0.9758 -0.2187 0.2187 0.9758 -4.1696 14.9429)" opacity="0.4" fill="#FF9E00" enable-background="new    " width="32.66" height="32.66"/>
		</g>
		<g>
			
				<rect id="XMLID_48_" x="24.37" y="48.99" transform="matrix(0.9758 -0.2187 0.2187 0.9758 -13.2979 10.4801)" fill="#FFBC00" width="32.66" height="32.66"/>
			
				<rect id="XMLID_47_" x="24.37" y="48.99" transform="matrix(0.9758 -0.2187 0.2187 0.9758 -13.2979 10.4801)" opacity="0.6" fill="#FF9E00" enable-background="new    " width="32.66" height="32.66"/>
		</g>
		
			<rect id="XMLID_13_" x="59.23" y="24.56" transform="matrix(0.5354 -0.8446 0.8446 0.5354 0.6105 82.6938)" fill="#FF9800" width="32.47" height="32.47"/>
	</g>
	<g>
		
			<rect id="XMLID_41_" x="31.8" y="7.17" transform="matrix(0.5354 -0.8446 0.8446 0.5354 2.551 51.4505)" fill="#FFBC00" width="32.47" height="32.47"/>
		
			<rect id="XMLID_40_" x="31.8" y="7.17" transform="matrix(0.5354 -0.8446 0.8446 0.5354 2.551 51.4505)" opacity="0.2" fill="#F4B400" enable-background="new    " width="32.47" height="32.47"/>
	</g>
	<g>
		
			<rect id="XMLID_39_" x="14.42" y="34.6" transform="matrix(0.5354 -0.8446 0.8446 0.5354 -28.6924 49.5098)" fill="#FFBC00" width="32.47" height="32.47"/>
		
			<rect id="XMLID_38_" x="14.42" y="34.6" transform="matrix(0.5354 -0.8446 0.8446 0.5354 -28.6924 49.5098)" opacity="0.2" fill="#F4B400" enable-background="new    " width="32.47" height="32.47"/>
	</g>
	<g>
		
			<rect id="XMLID_33_" x="41.84" y="51.98" transform="matrix(0.5354 -0.8446 0.8446 0.5354 -30.6332 80.7535)" fill="#FF9800" width="32.47" height="32.47"/>
		
			<rect id="XMLID_31_" x="41.84" y="51.98" transform="matrix(0.5354 -0.8446 0.8446 0.5354 -30.6332 80.7535)" opacity="0.3" fill="#FF6F00" enable-background="new    " width="32.47" height="32.47"/>
	</g>
	<path fill="#BF360C" fill-opacity="0.1" d="M84.87,38.42c3.78,17.51-7.26,34.83-24.78,38.76S25.2,70.16,21.14,52.7
		c0.02,0.08,0.03,0.17,0.05,0.25c3.94,17.6,21.41,28.67,39.01,24.73c17.6-3.94,28.67-21.41,24.73-39.01
		C84.91,38.59,84.89,38.51,84.87,38.42z"/>
	<path fill="#FFFFFF" fill-opacity="0.2" d="M45.92,13.95c-17.6,3.94-28.67,21.41-24.73,39.01c0.02,0.08,0.04,0.16,0.06,0.25
		c-3.78-17.51,7.26-34.83,24.78-38.76s34.9,7.03,38.95,24.48c-0.02-0.08-0.03-0.17-0.05-0.25C80.98,21.07,63.52,10,45.92,13.95z"/>
	
		<ellipse transform="matrix(0.9758 -0.2187 0.2187 0.9758 -8.7337 12.7115)" fill="#FFCA28" cx="53.06" cy="45.81" rx="32.66" ry="32.66"/>
</g>
</svg>
