<?xml version="1.0" encoding="UTF-8"?>
<svg width="560px" height="272px" viewBox="0 0 560 272" version="1.1" xmlns="http://www.w3.org/2000/svg" xmlns:xlink="http://www.w3.org/1999/xlink">
    <!-- Generator: Sketch 57.1 (83088) - https://sketch.com -->
    <title>Artboard</title>
    <desc>Created with Sketch.</desc>
    <defs>
        <path d="M0.13656439,299.432818 L273.568636,299.432818 L273.568636,0.264861878 L0.13656439,0.264861878 M102.118343,197.189834 L164.579646,32.561105 C216.587476,32.561105 258.748085,74.7185635 258.748085,126.722652 L258.748085,126.722652 C258.748085,178.726409 216.587476,220.883536 164.579646,220.883536 L164.579646,220.883536 C140.614253,220.883536 118.739754,211.932265 102.118343,197.189834" id="path-1"></path>
        <path d="M-1.76214598e-12,266.240884 L216.850661,266.240884 L216.850661,0.185635359 L-1.76214598e-12,0.185635359 M45.3254558,197.204751 L107.843772,32.3738122 C159.910934,32.3738122 202.119937,74.58 202.119937,126.643425 L202.119937,126.643425 C202.119937,178.706851 159.910934,220.912707 107.843772,220.912707 L107.843772,220.912707 C83.8578275,220.912707 61.964103,211.955801 45.3254558,197.204751" id="path-3"></path>
        <path d="M0.251914894,84.6232044 C0.251914894,131.176906 37.993738,168.91558 84.550925,168.91558 L84.550925,168.91558 C131.107781,168.91558 168.849935,131.176906 168.849935,84.6232044 L168.849935,84.6232044 C168.849935,38.0695028 131.107781,0.330165746 84.550925,0.330165746 L84.550925,0.330165746 C37.993738,0.330165746 0.251914894,38.0695028 0.251914894,84.6232044 L0.251914894,84.6232044 Z" id="path-5"></path>
        <path d="M1.83367525,4.16983425 C3.45057111,4.56232044 4.42044345,6.39812155 4.77842777,8.16530387 L4.77842777,8.16530387 C5.13641209,9.9318232 5.27529675,11.5020994 5.50632923,13.1645304 L5.50632923,13.1645304 L6.08341321,12.4372376 L9.54790594,16.1552486 L11.8572363,13.8460773 L15.1831758,20.6012155 L11.9265129,27.9911602 L10.6334602,27.2519337 C10.1534961,27.8104972 9.71695409,28.4048619 9.3284748,29.0303867 L9.3284748,29.0303867 C9.22903471,29.4066298 9.20152296,29.7987845 9.2472654,30.1849724 L9.2472654,30.1849724 C13.2314983,32.0091713 13.9361971,32.8292818 14.8135901,36.5704972 L14.8135901,36.5704972 L7.88493617,36.2353591 C8.43914894,41.7318232 9.03976708,43.3024309 11.1296663,46.1545856 L11.1296663,46.1545856 L14.0399462,46.061768 C14.6521657,48.7292818 14.3399239,51.1080663 12.4926585,52.3322652 L12.4926585,52.3322652 C9.83661366,54.0871823 12.6772856,56.6854144 10.6679328,58.8672928 L10.6679328,58.8672928 C7.44607391,62.3317127 6.71850392,67.400884 4.46684882,71.9041989 L4.46684882,71.9041989 L7.93134155,72.9666298 C7.90283539,74.5130387 7.77157447,76.0561326 7.53855319,77.5849724 L7.53855319,77.5849724 C6.9564972,80.1805525 7.64197088,82.8977901 9.38615006,84.9062983 L9.38615006,84.9062983 C10.540981,86.2916022 11.5111848,87.7581215 12.7349608,89.0396685 L12.7349608,89.0396685 C14.1668981,90.5525967 16.8693483,90.4369061 17.7006674,92.7924862 L17.7006674,92.7924862 C17.8117088,92.9761326 17.9897066,93.1083978 18.1968735,93.1620994 L18.1968735,93.1620994 C18.7242374,93.4176796 19.2976753,93.5632044 19.8830459,93.5893923 L19.8830459,93.5893923 C21.2689093,93.4044199 22.63157,93.4276243 23.8092721,92.0880663 L23.8092721,92.0880663 C24.0538947,91.8089503 24.8832251,92.0287293 25.6986338,92.2485083 L25.6986338,92.2485083 C26.499458,92.4646409 27.286692,92.6807735 27.4928645,92.4228729 L27.4928645,92.4228729 C29.098159,90.4020994 31.280869,90.9682873 33.2090123,90.4833149 L33.2090123,90.4833149 C33.5441254,90.4020994 33.959785,90.6447514 34.5255991,90.7833149 L34.5255991,90.7833149 C34.3751131,92.9579006 35.4275207,92.8037569 36.5985935,92.6502762 L36.5985935,92.6502762 C37.4050526,92.5441989 38.2675297,92.438453 38.8330123,93.0928177 L38.8330123,93.0928177 C38.836327,94.1575691 38.6606495,95.2153591 38.3132721,96.2224309 L38.3132721,96.2224309 C37.5512296,97.6998895 39.2718746,99.6861878 37.2741232,100.783094 L37.2741232,100.783094 C40.4611781,104.420552 38.9254916,109.154586 40.1379978,112.526188 L40.1379978,112.526188 C38.5095006,116.810387 36.3503247,119.83558 36.4196013,124.442652 L36.4196013,124.442652 C36.5120806,129.719669 34.2256215,135.077569 32.2507413,140.192486 L32.2507413,140.192486 C31.9620336,140.954917 31.5195252,141.706077 31.0342576,143.472597 L31.0342576,143.472597 C50.485402,126.721989 62.5928959,98.1430939 58.6998163,69.9198895 L58.6998163,69.9198895 C53.8610616,36.7339227 31.1946876,9.1879558 0.315888018,0.273812155 L0.315888018,0.273812155 C0.200537514,1.67104972 -0.567802912,3.59237569 1.83367525,4.16983425 L1.83367525,4.16983425 Z M18.7974916,17.8064088 L16.0260963,12.518453 C18.3357581,12.8181215 18.3357581,12.8181215 22.8049272,18.4534807 L22.8049272,18.4534807 L19.9523225,20.4510497 C19.4554535,19.7579006 16.7884703,19.8271823 18.7974916,17.8064088 L18.7974916,17.8064088 Z M19.8830459,43.3369061 C16.9730974,41.1546961 20.3911848,39.5612155 20.2758343,37.921326 L20.2758343,37.921326 C20.0215991,34.3302762 24.1788578,36.6971271 24.2826069,33.8801105 L24.2826069,33.8801105 C26.1073326,35.2889503 27.5508712,36.9977901 29.3752654,37.621326 L29.3752654,37.621326 C31.4078208,38.3141436 32.3892945,39.861547 33.7867592,41.2700552 L33.7867592,41.2700552 L31.165187,42.598011 L35.2760403,44.9075138 L34.7682329,37.2401105 C36.0500157,38.960884 36.7659843,40.080663 37.6321075,41.0618785 L37.6321075,41.0618785 C38.4978992,42.0434254 39.4913057,42.8519337 40.9116417,44.2030939 L40.9116417,44.2030939 L41.8357716,40.9697238 L46.8932945,45.4849724 L49.0067279,43.5447514 L52.0204255,50.2190055 C47.9901187,52.4244199 45.1958522,49.7456354 41.7200896,49.3760221 L41.7200896,49.3760221 L41.7200896,53.0824309 C41.4197805,53.0824309 41.0617962,53.221326 40.8420336,53.0824309 L40.8420336,53.0824309 C38.9367615,52.0203315 37.6669115,49.7801105 34.8259082,50.4265193 L34.8259082,50.4265193 C34.1792161,50.5770166 32.9319059,49.1453039 32.3200179,48.198232 L32.3200179,48.198232 C31.5162105,46.8298343 30.8025622,45.4103867 30.1837133,43.9491713 L30.1837133,43.9491713 C28.998056,43.1131492 28.2383337,43.6803315 27.487561,44.2475138 L27.487561,44.2475138 C26.7762329,44.7848619 26.0725286,45.3222099 25.0221097,44.6648619 L25.0221097,44.6648619 C22.8626025,43.3140331 22.1811064,46.258674 20.6454199,46.9743646 L20.6454199,46.9743646 C18.8322956,47.7944751 17.2734065,47.6787845 15.1599731,48.1292818 L15.1599731,48.1292818 C15.8298679,44.9535912 18.2664815,44.6648619 19.8830459,43.3369061 L19.8830459,43.3369061 Z" id="path-7"></path>
        <path d="M0.0775632699,64.9955801 C1.03616573,69.8340331 1.93875028,74.7878453 2.66632027,79.6375691 L2.66632027,79.6375691 C2.66632027,79.8570166 3.20893169,79.9955801 3.6593953,80.2727072 L3.6593953,80.2727072 L3.72867189,75.2728177 L4.4791131,75.2728177 L7.85112654,85.9306077 C9.00628891,86.761989 10.4378947,87.9629834 12.0083852,89.0250829 L12.0083852,89.0250829 C12.8115297,89.6071823 13.7346652,90.001989 14.7105039,90.1796685 L14.7105039,90.1796685 C18.9370392,90.7110497 23.9488197,92.2468508 25.9581725,95.2607735 L25.9581725,95.2607735 C27.7828981,98.0436464 30.1959776,98.4938122 31.9862307,99.1289503 L31.9862307,99.1289503 L35.8892542,97.4661878 C35.6930258,97.1310497 35.5080672,96.5075138 35.2886361,96.4959116 L35.2886361,96.4959116 C29.3646585,96.161105 29.3646585,96.1730387 28.5104681,90.618895 L28.5104681,90.618895 C28.4179888,90.0066298 28.2907055,89.4639779 28.0712744,88.3093923 L28.0712744,88.3093923 L22.6902396,87.1544751 L23.1058992,80.2266298 C18.798486,80.1222099 20.7962374,85.3763536 17.6784591,85.9998895 L17.6784591,85.9998895 C14.7105039,84.1292818 14.7105039,84.1292818 13.3133707,73.7834254 L13.3133707,73.7834254 C14.4682016,68.4026519 20.7962374,70.2036464 22.2281747,65.9777901 L22.2281747,65.9777901 L26.5587906,67.4671823 C26.6509384,69.9845304 27.18228,72.339779 29.8843987,73.8871823 L29.8843987,73.8871823 L28.406056,63.4952486 C28.6967525,63.0576796 29.0169496,62.641326 29.3646585,62.2478453 L29.3646585,62.2478453 C31.9398253,59.799779 35.6466204,58.0564641 34.8153012,53.4835359 L34.8153012,53.4835359 C36.6052228,51.4630939 37.124963,48.4723757 39.7462038,47.0751381 L39.7462038,47.0751381 C40.265944,46.798011 41.2586876,46.5672928 41.2586876,46.3133702 L41.2586876,46.3133702 C41.2586876,42.9185635 44.2614468,42.48 46.2247256,40.7472928 L46.2247256,40.7472928 C47.6480448,42.8459669 48.6716148,41.9970166 49.693196,41.1483978 L49.693196,41.1483978 C50.2619933,40.6753591 50.8307906,40.2026519 51.4672072,40.239779 L51.4672072,40.239779 C51.5364838,40.239779 51.6518343,39.661989 51.675037,39.581105 L51.675037,39.581105 L47.922168,37.8377901 L49.0769989,34.8934807 L46.1667189,33.9692818 C47.806486,33.3457459 49.4694558,33.7385635 50.947467,33.3689503 L50.947467,33.3689503 C52.4026069,32.7974586 53.7675879,32.0201105 55.0009765,31.059779 L55.0009765,31.059779 C56.4902576,30.1587845 57.9802016,29.2352486 59.6776439,28.1844199 L59.6776439,28.1844199 C57.7839731,24.3162431 52.7489899,23.0343646 52.6104367,18.3924862 L52.6104367,18.3924862 L47.7604121,22.6531492 C48.915243,16.5102762 44.8272609,17.1454144 42.3558432,16.3143646 L42.3558432,16.3143646 C41.7094826,17.0078453 40.9219171,17.5554696 40.0465129,17.919116 L40.0465129,17.919116 L41.5589966,19.4665193 L38.6835207,21.4872928 C41.3511669,23.4503867 39.8383516,26.1062983 39.3186114,26.2445304 L39.3186114,26.2445304 C35.715897,27.5721547 36.5823516,31.2328177 35.0463337,33.5539227 L35.0463337,33.5539227 L33.2564121,32.2027624 C32.4940381,31.4522652 34.0532587,31.1751381 34.0184546,30.5167956 L34.0184546,30.5167956 C34.0184546,29.6854144 33.7990235,28.8543646 33.6720717,27.9301657 L33.6720717,27.9301657 L28.2907055,26.3482873 C27.5402643,20.2514917 33.8222262,19.2470718 36.3741904,15.5751381 L36.3741904,15.5751381 C37.5446002,16.7310497 38.8031803,16.5570166 40.0886092,16.3826519 L40.0886092,16.3826519 C40.8317581,16.2818785 41.5838567,16.181105 42.332972,16.3372376 L42.332972,16.3372376 C42.1135409,14.9167956 41.9633863,13.8662983 41.7900291,12.6308287 L41.7900291,12.6308287 C44.6194311,12.6308287 45.0347592,7.12276243 49.5039283,9.60563536 L49.5039283,9.60563536 C48.2108757,11.6376796 46.1322464,12.3420994 44.6078298,13.6007735 L44.6078298,13.6007735 L49.8274401,16.1754696 L53.2919328,13.9703867 L53.4533572,10.4366851 C54.7238701,10.8755801 56.0056529,10.4946961 58.4074625,8.98209945 L58.4074625,8.98209945 L55.0583203,7.30773481 L56.0056529,5.58696133 L53.5226338,3.69314917 C53.7536663,2.68872928 54.3237895,1.3640884 54.1918656,0.892044199 L54.1918656,0.892044199 C54.0599418,0.42 53.8541008,0.137237569 53.7042777,0.0079558011 L53.7042777,0.0079558011 C25.6336663,10.479779 5.16094065,34.8934807 0.0775632699,64.9955801 L0.0775632699,64.9955801 Z" id="path-9"></path>
        <path d="M6.60481075,0.300331492 C1.98581859,5.1961326 1.98581859,5.1961326 2.66731467,12.3089503 L2.66731467,12.3089503 C2.66731467,12.6669613 2.42468085,13.0478453 2.32093169,13.4638674 L2.32093169,13.4638674 C1.63943561,16.1078453 0.96987234,18.7521547 0.322848824,21.2807735 L0.322848824,21.2807735 L2.40147816,26.638674 C4.35315566,28.7632044 6.16627996,30.9109392 8.17530123,32.8853039 L8.17530123,32.8853039 C10.484963,35.1026519 11.1432564,39.4329282 15.7161747,38.5664088 L15.7161747,38.5664088 C17.7255274,40.1950276 20.47372,40.8759116 21.3285733,43.9359116 L21.3285733,43.9359116 C22.1022172,46.7307182 24.1228399,49.1897238 24.7927346,52.018674 L24.7927346,52.018674 C25.4049541,54.5479558 27.4835834,56.0489503 28.1879507,58.1618785 L28.1879507,58.1618785 C29.1057828,60.5482873 30.1982979,62.8637569 31.4555521,65.0900552 L31.4555521,65.0900552 C32.3680806,66.9145856 34.5504591,66.1753591 35.1050034,68.3346961 L35.1050034,68.3346961 C35.3250974,69.0460773 35.9078163,70.0733702 36.4447928,70.5888398 L36.4447928,70.5888398 C38.6235252,70.9044199 40.6981769,71.1053039 42.9229832,71.259116 L42.9229832,71.259116 C42.7847615,70.4048619 42.5994714,69.3278453 41.0518522,69.4087293 L41.0518522,69.4087293 C39.1697828,69.500884 42.5762688,67.0992265 40.0243046,66.4872928 L40.0243046,66.4872928 C38.6616439,66.1753591 41.8835028,63.6119337 39.3428085,62.7112707 L39.3428085,62.7112707 L39.7007928,62.2034254 L43.1652856,61.1177901 L41.4330392,56.6724862 L43.9389295,56.3144751 C44.7125733,54.8250829 45.4862172,53.4507182 46.1677133,52.0302762 L46.1677133,52.0302762 C46.6758522,50.9681768 47.6805286,49.721105 47.4378947,48.7972376 L47.4378947,48.7972376 C46.2833953,44.8369061 49.3783024,43.4396685 51.745308,42.5847514 L51.745308,42.5847514 C54.1123135,41.7308287 55.0248421,40.6451934 55.3367525,38.4169061 L55.3367525,38.4169061 C55.6486629,36.1882873 56.3759015,33.7979006 56.5492587,31.4883978 L56.5492587,31.4883978 C56.7226159,29.178895 56.7570885,27.3895028 58.7896439,25.9577901 L58.7896439,25.9577901 C59.4360045,25.5072928 59.5977604,24.2834254 59.8635969,23.3711602 L59.8635969,23.3711602 C61.0184278,19.3296133 60.2560538,18.3248619 55.798486,17.4241989 L55.798486,17.4241989 C55.070916,17.2740331 54.5283046,16.2696133 53.4888242,15.1146961 L53.4888242,15.1146961 L47.1375857,16.719779 C46.4335498,14.6181215 44.1812318,14.6181215 42.1029339,14.2372376 L42.1029339,14.2372376 L41.0750549,15.5996685 L34.3081568,7.04320442 C31.3173303,6.87016575 29.2731736,6.45480663 27.3795028,6.70872928 L27.3795028,6.70872928 C25.069841,7.02033149 25.069841,4.02961326 22.6680314,3.98353591 L22.6680314,3.98353591 C20.7975633,3.97027624 19.1196775,2.83060773 18.4182934,1.09690608 L18.4182934,1.09690608 C16.7324524,1.78972376 15.2773124,2.82895028 13.7993012,2.8518232 L13.7993012,2.8518232 C12.3209586,2.87535912 10.6811915,1.92828729 9.1799776,1.4201105 L9.1799776,1.4201105 L8.21010526,2.49414365 L7.05527436,0.369281768 C6.93528331,0.369281768 6.75629115,0.280773481 6.65983427,0.280773481 L6.65983427,0.280773481 C6.63563718,0.280773481 6.61674356,0.286077348 6.60481075,0.300331492 L6.60481075,0.300331492 Z" id="path-11"></path>
        <path d="M11.9238611,1.08596685 C7.6989832,1.68596685 4.22719821,2.33966851 0.133912654,3.54662983 L0.133912654,3.54662983 L0.133912654,4.14430939 L4.11781411,4.34022099 L3.30936618,7.55038674 L6.0694916,8.07016575 L3.47112206,9.47867403 C5.48014334,11.0953591 2.31629115,13.7396685 4.81058007,15.5641989 L4.81058007,15.5641989 C5.83812766,16.3146961 5.83812766,18.4740331 6.23091601,19.7439779 L6.23091601,19.7439779 L12.0047391,20.7483978 C12.4552027,19.7668508 12.9169362,18.7050829 13.4138052,17.6542541 L13.4138052,17.6542541 C14.5686361,15.2525967 14.4761568,11.799779 18.4832609,11.9499448 L18.4832609,11.9499448 C19.6380918,9.64077348 21.5317626,8.83259669 24.0144502,8.61281768 L24.0144502,8.61281768 C24.7420202,8.55513812 25.365841,7.2159116 26.1855588,6.30331492 L26.1855588,6.30331492 C24.8344994,4.28287293 23.7883897,1.48508287 21.9868667,0.330165746 L21.9868667,0.330165746 C19.3513729,0.354696133 14.7264143,0.693480663 11.9238611,1.08596685 L11.9238611,1.08596685 Z" id="path-13"></path>
        <path d="M0.0427592385,2.2359116 L2.88343113,5.1921547 L4.31536842,6.26618785 C6.75198208,7.40950276 6.23224188,10.6422099 8.35694513,12.0513812 L8.35694513,12.0513812 C9.1769944,10.1227624 11.0245913,10.5036464 12.5602777,10.1920442 L12.5602777,10.1920442 C12.7913102,7.80198895 10.8283628,6.7279558 9.30394625,6.21977901 L9.30394625,6.21977901 C7.22830011,5.68939227 5.45959239,4.33359116 4.40751624,2.46696133 L4.40751624,2.46696133 C3.86490482,1.47414365 2.60632475,0.861878453 1.67092497,0.0769060773 L1.67092497,0.0769060773 L0.0427592385,2.2359116 Z" id="path-15"></path>
        <path d="M0.150486002,1.93259669 C1.52507951,3.34143646 1.53634938,3.26055249 3.04916461,3.54928177 L3.04916461,3.54928177 C4.17747816,3.82839779 5.28822396,4.17513812 6.37477268,4.58850829 L6.37477268,4.58850829 L8.30324748,1.44762431 L7.57567749,0.293038674 C5.19707055,0.962651934 2.59870101,0.570165746 0.150486002,1.93259669 L0.150486002,1.93259669 Z" id="path-17"></path>
        <path d="M0.213796193,1.44298343 C1.36829563,2.17060773 2.45384994,3.09414365 2.60400448,2.9559116 L2.60400448,2.9559116 C3.75850392,1.90508287 4.5553505,1.80099448 5.96441657,2.81701657 L5.96441657,2.81701657 C7.37315118,3.83370166 9.17467413,4.11049724 11.1840269,4.84972376 L11.1840269,4.84972376 L11.287776,2.33237569 C9.67088018,2.02044199 8.04304591,2.14740331 7.07284211,1.40850829 L7.07284211,1.40850829 C6.05954759,0.63878453 5.09961926,0.304640884 4.07836954,0.304309392 L4.07836954,0.304309392 C2.92353863,0.304309392 1.69048152,0.731933702 0.213796193,1.44298343 L0.213796193,1.44298343 Z" id="path-19"></path>
        <path d="M5.70056887,0.798895028 C4.0375991,0.69480663 2.44357447,-0.910276243 0.0881702128,1.33027624 L0.0881702128,1.33027624 L2.87116685,3.88176796 C4.64948712,0.787292818 8.50643673,2.88928177 11.739897,0.0139226519 L11.739897,0.0139226519 C9.75242105,0.444198895 7.7321299,0.706740331 5.70056887,0.798895028 L5.70056887,0.798895028 Z" id="path-21"></path>
        <path d="M0.283072788,2.1480663 C0.927444569,2.59259669 1.5201075,3.10773481 2.04979171,3.6838674 L2.04979171,3.6838674 C2.33849944,4.29480663 2.5516327,4.93823204 2.68488242,5.60055249 L2.68488242,5.60055249 L6.14937514,4.82685083 L5.65250616,1.29381215 L4.20929899,0.219779006 L0.283072788,2.1480663 Z" id="path-23"></path>
        <path d="M0.0778947368,3.63248619 L6.42913326,4.18640884 C6.49244345,3.80519337 6.51929227,3.41900552 6.5100112,3.0321547 L6.5100112,3.0321547 C6.4407346,2.4318232 6.27897872,1.87756906 6.1748981,1.3001105 L6.1748981,1.3001105 L2.84929003,0.16839779 L0.0778947368,3.63248619 Z" id="path-25"></path>
        <path d="M124.871561,55.8716022 C124.871561,102.425304 87.129738,140.164641 40.5728824,140.164641 L40.5728824,140.164641 C25.9883359,140.164641 12.2689183,136.461215 0.30362374,129.943425 L0.30362374,129.943425 C15.7536305,147.535359 38.4140381,158.639337 63.6685062,158.639337 L63.6685062,158.639337 C110.225362,158.639337 147.967185,120.900663 147.967185,74.3469613 L147.967185,74.3469613 C147.967185,42.3769061 130.167409,14.5630939 103.937102,0.275138122 L103.937102,0.275138122 C116.96972,15.1146961 124.871561,34.5706077 124.871561,55.8716022 L124.871561,55.8716022 Z" id="path-27"></path>
        <path d="M10.9529944,0.29801105 C5.07343337,0.29801105 0.304618141,5.14475138 0.304618141,11.1248619 L0.304618141,11.1248619 C0.304618141,17.1043094 5.07078163,21.9513812 10.9529944,21.9513812 L10.9529944,21.9513812 L94.9434087,21.9513812 L94.9434087,0.29801105 L10.9529944,0.29801105 Z" id="path-29"></path>
        <polygon id="path-31" points="0.304618141 0.187624309 94.995449 0.187624309 94.995449 0.839337017 0.304618141 0.839337017"></polygon>
        <polygon id="path-33" points="0.304618141 0.252596685 94.995449 0.252596685 94.995449 0.904309392 0.304618141 0.904309392"></polygon>
        <polygon id="path-35" points="0.304618141 0.123314917 94.995449 0.123314917 94.995449 0.774696133 0.304618141 0.774696133"></polygon>
        <polygon id="path-37" points="0.304618141 0.0583425414 94.995449 0.0583425414 94.995449 0.710055249 0.304618141 0.710055249"></polygon>
        <polygon id="path-39" points="0.304618141 0.32519337 94.995449 0.32519337 94.995449 0.976906077 0.304618141 0.976906077"></polygon>
        <polygon id="path-41" points="0.304618141 0.260220994 94.995449 0.260220994 94.995449 0.911933702 0.304618141 0.911933702"></polygon>
        <polygon id="path-43" points="0.304618141 0.195911602 94.995449 0.195911602 94.995449 0.847292818 0.304618141 0.847292818"></polygon>
        <polygon id="path-45" points="0.304618141 0.131270718 94.995449 0.131270718 94.995449 0.782983425 0.304618141 0.782983425"></polygon>
        <polygon id="path-47" points="0.304618141 0.0666298343 94.995449 0.0666298343 94.995449 0.718342541 0.304618141 0.718342541"></polygon>
        <polygon id="path-49" points="0.304618141 0.00165745856 94.995449 0.00165745856 94.995449 0.653701657 0.304618141 0.653701657"></polygon>
        <path d="M0.304531095,12.4896133 C0.287050392,17.199116 2.92983651,21.5154696 7.13449496,23.6439779 L7.13449496,23.6439779 C6.8401523,22.7131492 6.49310638,21.798895 6.09435162,20.9071823 L6.09435162,20.9071823 C-0.242302352,6.51812155 14.5056573,2.46331492 14.5056573,2.46331492 L14.5056573,2.46331492 L11.2506517,0.115027624 C5.10392833,0.768066298 0.304531095,6.05469613 0.304531095,12.4896133 L0.304531095,12.4896133 Z" id="path-51"></path>
        <path d="M12.97428,0.0122651934 C5.82553191,0.0122651934 0.0308264278,5.84685083 0.0308264278,13.0438674 L0.0308264278,13.0438674 C0.0308264278,20.2412155 5.82553191,26.0761326 12.97428,26.0761326 L12.97428,26.0761326 L98.4546383,26.0761326 L98.4546383,21.8330387 L12.97428,21.8330387 C8.15309295,21.8330387 4.24476596,17.8979006 4.24476596,13.0438674 L4.24476596,13.0438674 C4.24476596,8.19016575 8.15309295,4.25469613 12.97428,4.25469613 L12.97428,4.25469613 L98.4546383,4.25469613 L98.4546383,0.0122651934 L12.97428,0.0122651934 Z" id="path-53"></path>
        <polygon id="path-55" points="0.290696529 0.328839779 85.1856842 0.328839779 85.1856842 0.923867403 0.290696529 0.923867403"></polygon>
        <polygon id="path-57" points="0.290696529 0.200552486 85.1856842 0.200552486 85.1856842 0.79558011 0.290696529 0.79558011"></polygon>
        <polygon id="path-59" points="0.290696529 0.125635359 85.1856842 0.125635359 85.1856842 0.720662983 0.290696529 0.720662983"></polygon>
        <polygon id="path-61" points="0.290696529 0.253922652 85.1856842 0.253922652 85.1856842 0.848950276 0.290696529 0.848950276"></polygon>
        <polygon id="path-63" points="0.290696529 0.050718232 85.1856842 0.050718232 85.1856842 0.645745856 0.290696529 0.645745856"></polygon>
        <polygon id="path-65" points="0.290696529 0.179005525 85.1856842 0.179005525 85.1856842 0.774364641 0.290696529 0.774364641"></polygon>
        <polygon id="path-67" points="0.290696529 0.307292818 85.1856842 0.307292818 85.1856842 0.902320442 0.290696529 0.902320442"></polygon>
        <polygon id="path-69" points="0.290696529 0.10441989 85.1856842 0.10441989 85.1856842 0.699447514 0.290696529 0.699447514"></polygon>
        <polygon id="path-71" points="0.290696529 0.232707182 85.1856842 0.232707182 85.1856842 0.827734807 0.290696529 0.827734807"></polygon>
        <polygon id="path-73" points="0.290696529 0.0295027624 85.1856842 0.0295027624 85.1856842 0.624198895 0.290696529 0.624198895"></polygon>
        <path d="M0.290613565,11.3303867 C0.274454647,15.6301657 2.64411198,19.5712707 6.41355431,21.5148066 L6.41355431,21.5148066 C6.14970661,20.6645304 5.83879059,19.8301657 5.4814692,19.0160221 L5.4814692,19.0160221 C-0.200206047,5.87834254 13.0223427,2.1759116 13.0223427,2.1759116 L13.0223427,2.1759116 L10.1041075,0.0318232044 C4.59280627,0.628176796 0.290613565,5.45502762 0.290613565,11.3303867 L0.290613565,11.3303867 Z" id="path-75"></path>
        <path d="M11.8893886,0.0822099448 C5.4804748,0.0822099448 0.284730123,5.40928177 0.284730123,11.981105 L0.284730123,11.981105 C0.284730123,18.5522652 5.4804748,23.8796685 11.8893886,23.8796685 L11.8893886,23.8796685 L88.5272027,23.8796685 L88.5272027,20.0058564 L11.8893886,20.0058564 C7.56705935,20.0058564 4.06312206,16.4124862 4.06312206,11.981105 L4.06312206,11.981105 C4.06312206,7.54872928 7.56705935,3.9560221 11.8893886,3.9560221 L11.8893886,3.9560221 L88.5272027,3.9560221 L88.5272027,0.0822099448 L11.8893886,0.0822099448 Z" id="path-77"></path>
    </defs>
    <g id="Artboard" stroke="none" stroke-width="1" fill="none" fill-rule="evenodd">
        <g id="Scene/Global-Community-color" transform="translate(132.000000, -14.000000)">
            <g>
                <g id="Group-3" transform="translate(22.208287, 0.145856)">
                    <mask id="mask-2" fill="white">
                        <use xlink:href="#path-1"></use>
                    </mask>
                    <g id="Clip-2"></g>
                    <path d="M95.351621,204.820701 C114.306264,221.63151 138.722398,231.08274 164.579712,231.08274 C222.21936,231.08274 268.945898,184.359531 268.945898,126.722685 C268.945898,69.0855647 222.219417,22.3622983 164.579712,22.3622983 L164.579712,42.7599779 C210.955586,42.7599779 248.549742,80.3515471 248.549742,126.722685 C248.549742,173.093537 210.95554,210.685061 164.579712,210.685061 C143.758003,210.685061 124.142838,203.092236 108.884534,189.559697 L95.351621,204.820701 Z" id="Stroke-1" fill="#F1F3F4" fill-rule="nonzero" mask="url(#mask-2)"></path>
                </g>
                <g id="Group-6" transform="translate(77.563270, 0.145856)">
                    <mask id="mask-4" fill="white">
                        <use xlink:href="#path-3"></use>
                    </mask>
                    <g id="Clip-5"></g>
                    <path d="M43.6815493,200.675654 C61.6269204,216.585225 84.7284221,225.524851 109.206863,225.524851 C163.777005,225.524851 208.015508,181.289491 208.015508,126.722751 C208.015508,72.1555142 163.777171,27.9203204 109.206863,27.9203204 L109.206863,36.9859558 C158.771028,36.9859558 198.95055,77.1626221 198.95055,126.722751 C198.95055,176.282383 158.770862,216.459215 109.206863,216.459215 C86.9658484,216.459215 65.9975874,208.345093 49.6948825,193.891838 L43.6815493,200.675654 Z" id="Stroke-4" fill="#DADCE0" fill-rule="nonzero" mask="url(#mask-4)"></path>
                </g>
                <polygon id="Fill-7" fill="#F1F3F4" points="137.864569 217.30021 146.095888 221.494575 239.03127 39.0852928 230.690567 35.1050718"></polygon>
                <polygon id="Fill-8" fill="#DADCE0" points="143.956865 215.716309 147.99347 217.773547 237.506787 42.0796243 233.470182 40.0230497"></polygon>
                <g id="Group-11" transform="translate(101.760358, 42.245304)">
                    <mask id="mask-6" fill="white">
                        <use xlink:href="#path-5"></use>
                    </mask>
                    <g id="Clip-10"></g>
                    <polygon id="Fill-9" fill="#3E82F8" mask="url(#mask-6)" points="-5.41384994 174.581768 174.515368 174.581768 174.515368 -5.33569061 -5.41384994 -5.33569061"></polygon>
                </g>
                <g id="Group-14" transform="translate(211.475924, 46.223204)">
                    <mask id="mask-8" fill="white">
                        <use xlink:href="#path-7"></use>
                    </mask>
                    <g id="Clip-13"></g>
                    <polygon id="Fill-12" fill="#FFFFFF" mask="url(#mask-8)" points="-5.55770661 149.138785 65.0921568 149.138785 65.0921568 -5.3920442 -5.55770661 -5.3920442"></polygon>
                </g>
                <g id="Group-17" transform="translate(103.086226, 47.880663)">
                    <mask id="mask-10" fill="white">
                        <use xlink:href="#path-9"></use>
                    </mask>
                    <g id="Clip-16"></g>
                    <polygon id="Fill-15" fill="#FFFFFF" mask="url(#mask-10)" points="-5.5878701 104.794807 65.3434087 104.794807 65.3434087 -5.65856354 -5.5878701 -5.65856354"></polygon>
                </g>
                <g id="Group-20" transform="translate(138.884658, 140.366851)">
                    <mask id="mask-12" fill="white">
                        <use xlink:href="#path-11"></use>
                    </mask>
                    <g id="Clip-19"></g>
                    <polygon id="Fill-18" fill="#FFFFFF" mask="url(#mask-12)" points="-5.34258455 76.9256354 66.0103203 76.9256354 66.0103203 -5.38508287 -5.34258455 -5.38508287"></polygon>
                </g>
                <g id="Group-23" transform="translate(163.081747, 42.245304)">
                    <mask id="mask-14" fill="white">
                        <use xlink:href="#path-13"></use>
                    </mask>
                    <g id="Clip-22"></g>
                    <polygon id="Fill-21" fill="#FFFFFF" mask="url(#mask-14)" points="-5.53185218 26.4145856 31.8513236 26.4145856 31.8513236 -5.33569061 -5.53185218 -5.33569061"></polygon>
                </g>
                <g id="Group-26" transform="translate(212.470325, 60.477348)">
                    <mask id="mask-16" fill="white">
                        <use xlink:href="#path-15"></use>
                    </mask>
                    <g id="Clip-25"></g>
                    <polygon id="Fill-24" fill="#FFFFFF" mask="url(#mask-16)" points="-5.6230056 17.7172376 18.2446047 17.7172376 18.2446047 -5.58928177 -5.6230056 -5.58928177"></polygon>
                </g>
                <g id="Group-29" transform="translate(191.587906, 52.190055)">
                    <mask id="mask-18" fill="white">
                        <use xlink:href="#path-17"></use>
                    </mask>
                    <g id="Clip-28"></g>
                    <polygon id="Fill-27" fill="#FFFFFF" mask="url(#mask-18)" points="-5.51494737 10.2546961 13.9690123 10.2546961 13.9690123 -5.37314917 -5.51494737 -5.37314917"></polygon>
                </g>
                <g id="Group-32" transform="translate(128.277716, 124.455249)">
                    <mask id="mask-20" fill="white">
                        <use xlink:href="#path-19"></use>
                    </mask>
                    <g id="Clip-31"></g>
                    <polygon id="Fill-30" fill="#FFFFFF" mask="url(#mask-20)" points="-5.45196865 10.5155801 16.9535409 10.5155801 16.9535409 -5.36154696 -5.45196865 -5.36154696"></polygon>
                </g>
                <g id="Group-35" transform="translate(141.867861, 128.101657)">
                    <mask id="mask-22" fill="white">
                        <use xlink:href="#path-21"></use>
                    </mask>
                    <g id="Clip-34"></g>
                    <polygon id="Fill-33" fill="#FFFFFF" mask="url(#mask-22)" points="-5.57759462 9.5479558 17.4053303 9.5479558 17.4053303 -5.65226519 -5.57759462 -5.65226519"></polygon>
                </g>
                <g id="Group-38" transform="translate(211.144457, 65.449724)">
                    <mask id="mask-24" fill="white">
                        <use xlink:href="#path-23"></use>
                    </mask>
                    <g id="Clip-37"></g>
                    <polygon id="Fill-36" fill="#FFFFFF" mask="url(#mask-24)" points="-5.38269205 11.2667403 11.8148085 11.2667403 11.8148085 -5.44607735 -5.38269205 -5.44607735"></polygon>
                </g>
                <g id="Group-41" transform="translate(158.772676, 79.703867)">
                    <mask id="mask-26" fill="white">
                        <use xlink:href="#path-25"></use>
                    </mask>
                    <g id="Clip-40"></g>
                    <polygon id="Fill-39" fill="#FFFFFF" mask="url(#mask-26)" points="-5.5878701 9.85292818 12.1774334 9.85292818 12.1774334 -5.49745856 -5.5878701 -5.49745856"></polygon>
                </g>
                <g id="Group-44" transform="translate(122.642777, 52.521547)">
                    <mask id="mask-28" fill="white">
                        <use xlink:href="#path-27"></use>
                    </mask>
                    <use id="Clip-43" fill-opacity="0.12" fill="#5F6368" fill-rule="nonzero" xlink:href="#path-27"></use>
                </g>
                <g id="Group-72" transform="translate(15.578947, 24.013260)">
                    <path d="M183.434714,213.411282 L183.434714,203.378022 L177.66089,203.378022 L177.66089,213.411282 C177.676138,219.256144 176.40231,224.867635 172.280187,229.011282 C168.157733,233.154928 162.558261,234.754376 156.713173,234.769624 L128.77117,235.434597 C123.850212,235.551613 119.921665,239.574928 119.921665,244.49758 L119.921665,249.501448 L241.173607,249.501448 L241.173607,244.496254 C241.173607,239.573934 237.246055,235.55095 232.325759,235.433271 L204.613464,234.769624 C198.768375,234.786199 193.155977,233.096586 189.010982,228.975481 C184.865988,224.854707 183.451618,219.256144 183.434714,213.411282" id="Fill-45" fill="#F1F3F4"></path>
                    <polygon id="Fill-47" fill="#DADCE0" points="119.921765 249.501547 241.173707 249.501547 241.173707 243.727956 119.921765 243.727956"></polygon>
                    <polygon id="Fill-49" fill="#931E0E" points="135.666379 134.121978 135.78405 127.114243 139.067893 127.994354"></polygon>
                    <path d="M137.990526,129.380718 C140.18086,129.380718 141.956529,127.605249 141.956529,125.41442 C141.956529,123.224254 140.18086,121.448122 137.990526,121.448122 C135.800193,121.448122 134.024524,123.224254 134.024524,125.41442 C134.024524,127.605249 135.800193,129.380718 137.990526,129.380718" id="Fill-50" fill="#DD4330"></path>
                    <path d="M136.668503,125.414486 C137.398725,125.414486 137.990394,124.822773 137.990394,124.092497 C137.990394,123.362552 137.398725,122.770508 136.668503,122.770508 C135.938282,122.770508 135.346613,123.362552 135.346613,124.092497 C135.346613,124.822773 135.938282,125.414486 136.668503,125.414486" id="Fill-51" fill="#FFFFFF"></path>
                    <polygon id="Fill-52" fill="#931E0E" points="102.805673 88.8202541 102.923675 81.8125193 106.207187 82.6926298"></polygon>
                    <path d="M105.129819,84.0790276 C107.320153,84.0790276 109.095822,82.3032265 109.095822,80.1127293 C109.095822,77.922232 107.320153,76.1464309 105.129819,76.1464309 C102.939486,76.1464309 101.163817,77.922232 101.163817,80.1127293 C101.163817,82.3032265 102.939486,84.0790276 105.129819,84.0790276" id="Fill-53" fill="#DD4330"></path>
                    <path d="M103.807797,80.1127624 C104.538018,80.1127624 105.129687,79.5207182 105.129687,78.7907735 C105.129687,78.0604972 104.538018,77.468453 103.807797,77.468453 C103.077575,77.468453 102.485906,78.0604972 102.485906,78.7907735 C102.485906,79.5207182 103.077575,80.1127624 103.807797,80.1127624" id="Fill-54" fill="#FFFFFF"></path>
                    <polygon id="Fill-55" fill="#931E0E" points="143.598284 147.720564 143.715955 140.712829 146.999798 141.592939"></polygon>
                    <path d="M145.922431,142.979337 C148.112765,142.979337 149.888434,141.203867 149.888434,139.013039 C149.888434,136.822873 148.112765,135.04674 145.922431,135.04674 C143.732098,135.04674 141.956429,136.822873 141.956429,139.013039 C141.956429,141.203867 143.732098,142.979337 145.922431,142.979337" id="Fill-56" fill="#DD4330"></path>
                    <path d="M144.600409,139.013072 C145.33063,139.013072 145.922299,138.421359 145.922299,137.691083 C145.922299,136.961138 145.33063,136.368762 144.600409,136.368762 C143.870187,136.368762 143.278518,136.961138 143.278518,137.691083 C143.278518,138.421359 143.870187,139.013072 144.600409,139.013072" id="Fill-57" fill="#FFFFFF"></path>
                    <polygon id="Fill-58" fill="#931E0E" points="159.462028 133.989878 159.58003 126.982144 162.863542 127.862254"></polygon>
                    <path d="M161.786175,129.248652 C163.976509,129.248652 165.752177,127.473182 165.752177,125.282354 C165.752177,123.091856 163.976509,121.316055 161.786175,121.316055 C159.595841,121.316055 157.820173,123.091856 157.820173,125.282354 C157.820173,127.473182 159.595841,129.248652 161.786175,129.248652" id="Fill-59" fill="#DD4330"></path>
                    <path d="M160.464152,125.282387 C161.194374,125.282387 161.786043,124.690674 161.786043,123.960398 C161.786043,123.230122 161.194374,122.638077 160.464152,122.638077 C159.733931,122.638077 159.142262,123.230122 159.142262,123.960398 C159.142262,124.690674 159.733931,125.282387 160.464152,125.282387" id="Fill-60" fill="#FFFFFF"></path>
                    <polygon id="Fill-61" fill="#931E0E" points="117.53633 75.195116 117.654332 68.1873812 120.937844 69.0674917"></polygon>
                    <path d="M119.860477,70.4538564 C122.05081,70.4538564 123.826479,68.6783867 123.826479,66.487558 C123.826479,64.2970608 122.05081,62.5212597 119.860477,62.5212597 C117.670143,62.5212597 115.894474,64.2970608 115.894474,66.487558 C115.894474,68.6783867 117.670143,70.4538564 119.860477,70.4538564" id="Fill-62" fill="#DD4330"></path>
                    <path d="M118.538454,66.4876243 C119.268675,66.4876243 119.860344,65.8959116 119.860344,65.1656354 C119.860344,64.4353591 119.268675,63.8433149 118.538454,63.8433149 C117.808232,63.8433149 117.216563,64.4353591 117.216563,65.1656354 C117.216563,65.8959116 117.808232,66.4876243 118.538454,66.4876243" id="Fill-63" fill="#FFFFFF"></path>
                    <polygon id="Fill-64" fill="#931E0E" points="210.452752 59.2747624 210.570754 52.2673591 213.854266 53.1474696"></polygon>
                    <path d="M212.776932,54.5338343 C214.967265,54.5338343 216.742934,52.7580331 216.742934,50.5675359 C216.742934,48.3770387 214.967265,46.6012376 212.776932,46.6012376 C210.586598,46.6012376 208.810929,48.3770387 208.810929,50.5675359 C208.810929,52.7580331 210.586598,54.5338343 212.776932,54.5338343" id="Fill-65" fill="#DD4330"></path>
                    <path d="M211.454909,50.5676022 C212.185131,50.5676022 212.776799,49.975558 212.776799,49.2456133 C212.776799,48.515337 212.185131,47.9232928 211.454909,47.9232928 C210.724687,47.9232928 210.133019,48.515337 210.133019,49.2456133 C210.133019,49.975558 210.724687,50.5676022 211.454909,50.5676022" id="Fill-66" fill="#FFFFFF"></path>
                    <polygon id="Fill-67" fill="#931E0E" points="218.384657 95.5928619 218.502659 88.5851271 221.786171 89.4652376"></polygon>
                    <path d="M220.708804,90.8516022 C222.899137,90.8516022 224.674806,89.0761326 224.674806,86.8853039 C224.674806,84.6951381 222.899137,82.9190055 220.708804,82.9190055 C218.51847,82.9190055 216.742801,84.6951381 216.742801,86.8853039 C216.742801,89.0761326 218.51847,90.8516022 220.708804,90.8516022" id="Fill-68" fill="#DD4330"></path>
                    <path d="M219.386781,86.8853702 C220.117002,86.8853702 220.708671,86.2936575 220.708671,85.5633812 C220.708671,84.8334365 220.117002,84.2410608 219.386781,84.2410608 C218.656559,84.2410608 218.06489,84.8334365 218.06489,85.5633812 C218.06489,86.2936575 218.656559,86.8853702 219.386781,86.8853702" id="Fill-69" fill="#FFFFFF"></path>
                    <path d="M0.315523404,62.5213591 L76.2350486,62.5213591 C73.5445312,58.0535138 68.7793622,55.2106409 63.533566,54.9441215 C63.0721639,51.606663 61.275613,48.5934033 58.5479713,46.5809171 C55.8206611,44.5687624 52.3909725,43.726442 49.0298974,44.2429061 C46.8057541,38.9947293 41.6955279,35.5127403 35.9508739,35.3317459 C30.2065514,35.1507514 24.8828605,38.3035691 22.3262558,43.4009171 C18.7152546,42.9563867 15.0856914,44.0705304 12.3620273,46.4599227 C9.63836327,48.8493149 8.0837832,52.2832376 8.09439015,55.886884 C8.09439015,56.3022431 8.11427816,56.7146188 8.1540542,57.124674 C4.93086943,57.8433481 2.11837223,59.7795912 0.315523404,62.5213591" id="Fill-70" fill="#F8F9FA"></path>
                    <path d="M44.5075279,22.8589061 L107.962569,22.8589061 C105.717544,19.123989 101.730659,16.7455359 97.3393845,16.5201215 C96.9525626,13.740232 95.4520116,11.2305083 93.1745021,9.55349171 C90.8966611,7.87713812 88.0327866,7.1740442 85.2255928,7.60233149 C83.3554562,3.23459669 79.0808582,0.343325967 74.2818795,0.200121547 C69.4832323,0.0572486188 65.0395861,2.68829834 62.9059333,6.93669613 C62.4710486,6.88796685 62.0335122,6.86641989 61.5959758,6.87106077 C55.7498929,6.87106077 51.0105783,11.5520552 51.0105783,17.3266409 C51.0105783,17.6763646 51.0264887,18.0201215 51.0579781,18.3579116 C48.364146,18.9575801 46.0137138,20.5729392 44.5075279,22.8589061" id="Fill-71" fill="#F8F9FA"></path>
                </g>
                <g id="Group-75" transform="translate(2.320269, 249.759116)">
                    <mask id="mask-30" fill="white">
                        <use xlink:href="#path-29"></use>
                    </mask>
                    <g id="Clip-74"></g>
                    <polygon id="Fill-73" fill="#F1F3F4" mask="url(#mask-30)" points="-5.36081523 27.6169061 100.609174 27.6169061 100.609174 -5.3681768 -5.36081523 -5.3681768"></polygon>
                </g>
                <g id="Group-78" transform="translate(2.320269, 254.068508)">
                    <mask id="mask-32" fill="white">
                        <use xlink:href="#path-31"></use>
                    </mask>
                    <g id="Clip-77"></g>
                    <polygon id="Fill-76" fill="#FFFFFF" mask="url(#mask-32)" points="-5.36081523 6.50519337 100.661214 6.50519337 100.661214 -5.47823204 -5.36081523 -5.47823204"></polygon>
                </g>
                <g id="Group-81" transform="translate(2.320269, 252.411050)">
                    <mask id="mask-34" fill="white">
                        <use xlink:href="#path-33"></use>
                    </mask>
                    <g id="Clip-80"></g>
                    <polygon id="Fill-79" fill="#FFFFFF" mask="url(#mask-34)" points="-5.36081523 6.57016575 100.661214 6.57016575 100.661214 -5.41359116 -5.36081523 -5.41359116"></polygon>
                </g>
                <g id="Group-84" transform="translate(2.320269, 255.725967)">
                    <mask id="mask-36" fill="white">
                        <use xlink:href="#path-35"></use>
                    </mask>
                    <g id="Clip-83"></g>
                    <polygon id="Fill-82" fill="#FFFFFF" mask="url(#mask-36)" points="-5.36081523 6.44055249 100.661214 6.44055249 100.661214 -5.54287293 -5.36081523 -5.54287293"></polygon>
                </g>
                <g id="Group-87" transform="translate(2.320269, 257.383425)">
                    <mask id="mask-38" fill="white">
                        <use xlink:href="#path-37"></use>
                    </mask>
                    <g id="Clip-86"></g>
                    <polygon id="Fill-85" fill="#FFFFFF" mask="url(#mask-38)" points="-5.36081523 6.37624309 100.661214 6.37624309 100.661214 -5.60751381 -5.36081523 -5.60751381"></polygon>
                </g>
                <g id="Group-90" transform="translate(2.320269, 258.709392)">
                    <mask id="mask-40" fill="white">
                        <use xlink:href="#path-39"></use>
                    </mask>
                    <g id="Clip-89"></g>
                    <polygon id="Fill-88" fill="#FFFFFF" mask="url(#mask-40)" points="-5.36081523 6.64276243 100.661214 6.64276243 100.661214 -5.34099448 -5.36081523 -5.34099448"></polygon>
                </g>
                <g id="Group-93" transform="translate(2.320269, 260.366851)">
                    <mask id="mask-42" fill="white">
                        <use xlink:href="#path-41"></use>
                    </mask>
                    <g id="Clip-92"></g>
                    <polygon id="Fill-91" fill="#FFFFFF" mask="url(#mask-42)" points="-5.36081523 6.57812155 100.661214 6.57812155 100.661214 -5.40530387 -5.36081523 -5.40530387"></polygon>
                </g>
                <g id="Group-96" transform="translate(2.320269, 262.024309)">
                    <mask id="mask-44" fill="white">
                        <use xlink:href="#path-43"></use>
                    </mask>
                    <g id="Clip-95"></g>
                    <polygon id="Fill-94" fill="#FFFFFF" mask="url(#mask-44)" points="-5.36081523 6.51348066 100.661214 6.51348066 100.661214 -5.46994475 -5.36081523 -5.46994475"></polygon>
                </g>
                <g id="Group-99" transform="translate(2.320269, 263.681768)">
                    <mask id="mask-46" fill="white">
                        <use xlink:href="#path-45"></use>
                    </mask>
                    <g id="Clip-98"></g>
                    <polygon id="Fill-97" fill="#FFFFFF" mask="url(#mask-46)" points="-5.36081523 6.44883978 100.661214 6.44883978 100.661214 -5.53491713 -5.36081523 -5.53491713"></polygon>
                </g>
                <g id="Group-102" transform="translate(2.320269, 265.339227)">
                    <mask id="mask-48" fill="white">
                        <use xlink:href="#path-47"></use>
                    </mask>
                    <g id="Clip-101"></g>
                    <polygon id="Fill-100" fill="#FFFFFF" mask="url(#mask-48)" points="-5.36081523 6.3841989 100.661214 6.3841989 100.661214 -5.59955801 -5.36081523 -5.59955801"></polygon>
                </g>
                <g id="Group-105" transform="translate(2.320269, 266.996685)">
                    <mask id="mask-50" fill="white">
                        <use xlink:href="#path-49"></use>
                    </mask>
                    <g id="Clip-104"></g>
                    <polygon id="Fill-103" fill="#FFFFFF" mask="url(#mask-50)" points="-5.36081523 6.31955801 100.661214 6.31955801 100.661214 -5.6638674 -5.36081523 -5.6638674"></polygon>
                </g>
                <g id="Group-108" transform="translate(2.320269, 249.096133)">
                    <mask id="mask-52" fill="white">
                        <use xlink:href="#path-51"></use>
                    </mask>
                    <g id="Clip-107"></g>
                    <polygon id="Fill-106" fill="#DADCE0" mask="url(#mask-52)" points="-5.36081523 29.3101657 20.1714222 29.3101657 20.1714222 -5.55082873 -5.36081523 -5.55082873"></polygon>
                </g>
                <g id="Group-111" transform="translate(0.000000, 247.438674)">
                    <mask id="mask-54" fill="white">
                        <use xlink:href="#path-53"></use>
                    </mask>
                    <g id="Clip-110"></g>
                    <polygon id="Fill-109" fill="#FCBD00" mask="url(#mask-54)" points="-5.63493841 31.741989 104.120403 31.741989 104.120403 -5.65392265 -5.63493841 -5.65392265"></polygon>
                </g>
                <path d="M97.4033245,226.033094 L22.1016538,226.033094 C16.8300031,226.033094 12.5547422,230.458508 12.5547422,235.918177 C12.5547422,241.377845 16.8276829,245.80326 22.1016538,245.80326 L97.4033245,245.80326 L97.4033245,226.033094 Z" id="Fill-112" fill="#F1F3F4"></path>
                <g id="Group-116" transform="translate(12.264278, 229.538122)">
                    <mask id="mask-56" fill="white">
                        <use xlink:href="#path-55"></use>
                    </mask>
                    <g id="Clip-115"></g>
                    <polygon id="Fill-114" fill="#FFFFFF" mask="url(#mask-56)" points="-5.37506831 6.58972376 90.851449 6.58972376 90.851449 -5.33701657 -5.37506831 -5.33701657"></polygon>
                </g>
                <g id="Group-119" transform="translate(12.264278, 228.212155)">
                    <mask id="mask-58" fill="white">
                        <use xlink:href="#path-57"></use>
                    </mask>
                    <g id="Clip-118"></g>
                    <polygon id="Fill-117" fill="#FFFFFF" mask="url(#mask-58)" points="-5.37506831 6.46143646 90.851449 6.46143646 90.851449 -5.46563536 -5.37506831 -5.46563536"></polygon>
                </g>
                <g id="Group-122" transform="translate(12.264278, 231.195580)">
                    <mask id="mask-60" fill="white">
                        <use xlink:href="#path-59"></use>
                    </mask>
                    <g id="Clip-121"></g>
                    <polygon id="Fill-120" fill="#FFFFFF" mask="url(#mask-60)" points="-5.37506831 6.38651934 90.851449 6.38651934 90.851449 -5.54022099 -5.37506831 -5.54022099"></polygon>
                </g>
                <g id="Group-125" transform="translate(12.264278, 232.521547)">
                    <mask id="mask-62" fill="white">
                        <use xlink:href="#path-61"></use>
                    </mask>
                    <g id="Clip-124"></g>
                    <polygon id="Fill-123" fill="#FFFFFF" mask="url(#mask-62)" points="-5.37506831 6.51513812 90.851449 6.51513812 90.851449 -5.4119337 -5.37506831 -5.4119337"></polygon>
                </g>
                <g id="Group-128" transform="translate(12.264278, 234.179006)">
                    <mask id="mask-64" fill="white">
                        <use xlink:href="#path-63"></use>
                    </mask>
                    <g id="Clip-127"></g>
                    <polygon id="Fill-126" fill="#FFFFFF" mask="url(#mask-64)" points="-5.37506831 6.31160221 90.851449 6.31160221 90.851449 -5.61513812 -5.37506831 -5.61513812"></polygon>
                </g>
                <g id="Group-131" transform="translate(12.264278, 235.504972)">
                    <mask id="mask-66" fill="white">
                        <use xlink:href="#path-65"></use>
                    </mask>
                    <g id="Clip-130"></g>
                    <polygon id="Fill-129" fill="#FFFFFF" mask="url(#mask-66)" points="-5.37506831 6.44022099 90.851449 6.44022099 90.851449 -5.48685083 -5.37506831 -5.48685083"></polygon>
                </g>
                <g id="Group-134" transform="translate(12.264278, 236.830939)">
                    <mask id="mask-68" fill="white">
                        <use xlink:href="#path-67"></use>
                    </mask>
                    <g id="Clip-133"></g>
                    <polygon id="Fill-132" fill="#FFFFFF" mask="url(#mask-68)" points="-5.37506831 6.56850829 90.851449 6.56850829 90.851449 -5.35823204 -5.37506831 -5.35823204"></polygon>
                </g>
                <g id="Group-137" transform="translate(12.264278, 238.488398)">
                    <mask id="mask-70" fill="white">
                        <use xlink:href="#path-69"></use>
                    </mask>
                    <g id="Clip-136"></g>
                    <polygon id="Fill-135" fill="#FFFFFF" mask="url(#mask-70)" points="-5.37506831 6.36497238 90.851449 6.36497238 90.851449 -5.56176796 -5.37506831 -5.56176796"></polygon>
                </g>
                <g id="Group-140" transform="translate(12.264278, 239.814365)">
                    <mask id="mask-72" fill="white">
                        <use xlink:href="#path-71"></use>
                    </mask>
                    <g id="Clip-139"></g>
                    <polygon id="Fill-138" fill="#FFFFFF" mask="url(#mask-72)" points="-5.37506831 6.49359116 90.851449 6.49359116 90.851449 -5.43348066 -5.37506831 -5.43348066"></polygon>
                </g>
                <g id="Group-143" transform="translate(12.264278, 241.471823)">
                    <mask id="mask-74" fill="white">
                        <use xlink:href="#path-73"></use>
                    </mask>
                    <g id="Clip-142"></g>
                    <polygon id="Fill-141" fill="#FFFFFF" mask="url(#mask-74)" points="-5.37506831 6.29038674 90.851449 6.29038674 90.851449 -5.63635359 -5.37506831 -5.63635359"></polygon>
                </g>
                <g id="Group-146" transform="translate(12.264278, 225.228729)">
                    <mask id="mask-76" fill="white">
                        <use xlink:href="#path-75"></use>
                    </mask>
                    <g id="Clip-145"></g>
                    <polygon id="Fill-144" fill="#DADCE0" mask="url(#mask-76)" points="-5.37506831 27.1809945 18.6881075 27.1809945 18.6881075 -5.63403315 -5.37506831 -5.63403315"></polygon>
                </g>
                <g id="Group-149" transform="translate(9.944009, 223.571271)">
                    <mask id="mask-78" fill="white">
                        <use xlink:href="#path-77"></use>
                    </mask>
                    <g id="Clip-148"></g>
                    <polygon id="Fill-147" fill="#2DA94F" mask="url(#mask-78)" points="-5.38070325 29.5455249 94.1929675 29.5455249 94.1929675 -5.5839779 -5.38070325 -5.5839779"></polygon>
                </g>
                <g id="Group-207" transform="translate(36.461366, 129.427624)">
                    <path d="M79.5918477,9.3619558 L79.5918477,9.3619558 C81.1934961,9.79123757 82.1438119,11.4374254 81.7145622,13.0391934 C81.7132363,13.0441657 81.7119104,13.0491381 81.7105845,13.0541105 L45.8763539,144.087149 L39.4525241,144.087149 L75.8774289,11.4911271 C76.3199373,9.88074033 77.9789295,8.92969061 79.5918477,9.3619558" id="Fill-150" fill="#BABFC5"></path>
                    <path d="M78.0151919,18.3005635 L113.142072,18.3005635 C114.080787,18.3005635 114.841835,19.0616685 114.841835,20.0001215 C114.841835,20.9389061 114.080787,21.700011 113.142072,21.700011 L78.0151919,21.700011 C77.0764775,21.700011 76.3154293,20.9389061 76.3154293,20.0001215 C76.3154293,19.0616685 77.0764775,18.3005635 78.0151919,18.3005635" id="Fill-152" fill="#DADCE0"></path>
                    <path d="M72.3495597,37.5649724 L107.47644,37.5649724 C108.415154,37.5649724 109.176202,38.3260773 109.176202,39.2648619 C109.176202,40.2036464 108.415154,40.9647514 107.47644,40.9647514 L72.3495597,40.9647514 C71.4108452,40.9647514 70.6497971,40.2036464 70.6497971,39.2648619 C70.6497971,38.3260773 71.4108452,37.5649724 72.3495597,37.5649724" id="Fill-154" fill="#DADCE0"></path>
                    <path d="M66.6839274,56.8296796 L101.810808,56.8296796 C102.749522,56.8296796 103.51057,57.5907845 103.51057,58.5295691 C103.51057,59.4683536 102.749522,60.2294586 101.810808,60.2294586 L66.6839274,60.2294586 C65.745213,60.2294586 64.9841648,59.4683536 64.9841648,58.5295691 C64.9841648,57.5907845 65.745213,56.8296796 66.6839274,56.8296796" id="Fill-156" fill="#DADCE0"></path>
                    <path d="M61.5848717,76.0944199 L96.7117518,76.0944199 C97.6504663,76.0944199 98.4115144,76.8551934 98.4115144,77.7939779 C98.4115144,78.7327624 97.6504663,79.4938674 96.7117518,79.4938674 L61.5848717,79.4938674 C60.6461572,79.4938674 59.8851091,78.7327624 59.8851091,77.7939779 C59.8851091,76.8551934 60.6461572,76.0944199 61.5848717,76.0944199" id="Fill-158" fill="#DADCE0"></path>
                    <path d="M56.4857828,95.3587956 L91.6126629,95.3587956 C92.5513774,95.3587956 93.3124255,96.1199006 93.3124255,97.0586851 C93.3124255,97.9974696 92.5513774,98.7585746 91.6126629,98.7585746 L56.4857828,98.7585746 C55.5470683,98.7585746 54.7860202,97.9974696 54.7860202,97.0586851 C54.7860202,96.1199006 55.5470683,95.3587956 56.4857828,95.3587956" id="Fill-160" fill="#DADCE0"></path>
                    <path d="M50.8201174,114.623503 L85.9469975,114.623503 C86.885712,114.623503 87.6467601,115.384608 87.6467601,116.323392 C87.6467601,117.262177 86.885712,118.023282 85.9469975,118.023282 L50.8201174,118.023282 C49.8814029,118.023282 49.1203548,117.262177 49.1203548,116.323392 C49.1203548,115.384608 49.8814029,114.623503 50.8201174,114.623503" id="Fill-162" fill="#DADCE0"></path>
                    <path d="M116.985067,9.3619558 L116.985067,9.3619558 C118.586715,9.79123757 119.537031,11.4374254 119.107781,13.0391934 C119.106456,13.0441657 119.10513,13.0491381 119.103804,13.0541105 L83.2695731,144.087149 L76.8457433,144.087149 L113.270648,11.4911271 C113.713157,9.88074033 115.372149,8.92969061 116.985067,9.3619558" id="Fill-164" fill="#DADCE0"></path>
                    <path d="M110.659153,13.641547 L114.433235,14.8130387 L118.929253,8.35325967 C118.785065,7.14464088 118.785065,6.12033149 118.929253,5.27900552 C119.146033,4.01734807 121.327085,3.59569061 122.135533,4.22121547 C122.944313,4.84707182 122.642678,7.60508287 120.610785,9.40077348 C118.963063,12.559558 116.676272,18.7203315 115.007668,18.9311602 C113.895265,19.0717127 111.571018,18.5366851 108.03526,17.3257459 L110.659153,13.641547 Z" id="Fill-166" fill="#FFE0A9"></path>
                    <path d="M90.3665129,70.1883978 L87.8655946,72.8270718 C89.3306786,75.2151381 90.4284972,76.6475138 91.1593819,77.1245304 C92.2555431,77.8398895 93.771673,78.5366851 94.7309384,78.2065193 C95.6902038,77.8766851 93.3013214,75.24 92.7500918,73.7724862 C92.5455767,73.2281768 92.8551669,72.1803315 93.6788623,70.6289503 L90.3665129,70.1883978 Z" id="Fill-168" fill="#ED412D"></path>
                    <path d="M89.2693241,17.3158011 L85.5058482,22.0836464 C84.4865872,20.559116 83.8803342,19.1433149 83.6870889,17.8352486 C83.5627888,16.8245304 81.6621572,16.8729282 81.64923,17.8352486 C81.6121057,20.5657459 83.9161326,27.3994475 85.1428918,27.7296133 C85.9606208,27.9500552 88.3587843,25.561989 92.3370508,20.5657459 L89.2693241,17.3158011 Z" id="Fill-170" fill="#FFE0A9"></path>
                    <path d="M73.5708497,60.5845525 C71.4514499,62.9175912 70.1395037,64.4971492 69.6356739,65.3225635 C68.8795978,66.5610166 68.8192708,68.8171492 69.6356739,69.3989171 C70.4517456,69.9806851 72.2787915,68.305989 73.5708497,66.5139448 C74.4320009,65.3192486 75.3302764,63.562674 76.2653447,61.2438895 L73.5708497,60.5845525 Z" id="Fill-172" fill="#ED412D"></path>
                    <path d="M89.0880116,36.1130718 C83.7726074,43.4778232 78.4379781,51.6033481 73.0837922,60.4896464 C73.2767059,61.4158343 74.1524417,62.1799227 75.7106679,62.7822431 C83.7520564,55.3170497 89.7582378,48.8483204 93.7292121,43.3763867 C94.3503812,42.5201436 95.0013823,43.3763867 94.8850374,45.2201436 C94.8074741,46.4493149 94.8074741,50.2385967 94.8850374,56.5886519 L89.7937048,70.4380442 C90.6266813,71.7792597 91.7672591,72.324895 93.2157698,72.0749503 C94.0673084,71.4394807 96.8542826,66.6832376 101.576692,57.8052265 C103.572787,50.2929613 104.531389,43.0624641 104.452168,36.1130718 C100.630023,35.1656685 95.5085268,35.1656685 89.0880116,36.1130718" id="Fill-174" fill="#FBAC00"></path>
                    <path d="M99.5697595,10.3849061 C101.794897,10.3849061 103.59874,8.27396685 103.59874,5.66976796 C103.59874,3.06590055 101.794897,0.954961326 99.5697595,0.954961326 C97.3446217,0.954961326 95.5407785,3.06590055 95.5407785,5.66976796 C95.5407785,8.27396685 97.3446217,10.3849061 99.5697595,10.3849061" id="Fill-176" fill="#FFE0A9"></path>
                    <polygon id="Fill-178" fill="#FFE0A9" points="96.7495722 12.7425414 100.778553 12.7425414 100.778553 9.20618785 96.7495722 9.20618785"></polygon>
                    <path d="M100.778487,0.538243094 C100.081743,0.308850829 96.7458598,-0.210265193 94.9788094,2.47514917 C94.1786482,3.69072928 94.3059315,5.31338122 94.842908,6.70896133 C95.4919203,8.39658564 96.7402249,9.75139227 97.67231,9.65028729 C99.3750558,9.46630939 100.559387,7.06664088 100.411884,5.21128177 C100.264382,3.35559116 102.322791,3.07647514 102.746406,2.55603315 C103.16969,2.03559116 101.675105,0.833933702 100.778487,0.538243094" id="Fill-180" fill="#4F1D00"></path>
                    <path d="M95.0690679,11.4441215 C97.475518,10.2381547 101.158116,10.7400331 105.747608,12.3719669 C108.807379,13.4599227 111.149856,13.647547 112.755814,14.1235691 C112.198286,17.2405856 111.82638,18.3603646 110.977825,18.9530718 C108.628718,18.5314144 106.634613,17.6499779 106.147025,17.9294254 C105.982949,18.0239006 106.74466,19.7373812 106.292539,22.4194807 C105.814895,25.2520773 104.007738,29.5750608 103.967961,32.2767182 C103.927854,34.9780442 104.774089,37.605779 104.460521,37.9478785 C103.515509,38.9794807 89.0880779,36.1130718 89.0880779,36.1130718 C89.0880779,36.1130718 91.5180623,31.4980442 92.9987252,26.9745083 C94.219518,23.2445635 93.5744833,20.2770497 93.8704833,18.2019116 C93.5353702,18.8403646 92.1806647,21.7047845 91.1372067,22.6206961 C89.0850947,21.2927403 87.9001003,19.8222431 87.5828865,18.2095359 C89.6147789,15.4485414 92.6626177,12.6504199 95.0690679,11.4441215" id="Fill-181" fill="#ED412D"></path>
                    <path d="M96.9759642,2.7279116 C96.9759642,3.54039779 96.5490347,4.19874033 96.0226652,4.19874033 C95.4959642,4.19874033 95.0690347,3.54039779 95.0690347,2.7279116 C95.0690347,1.91542541 95.4959642,1.25708287 96.0226652,1.25708287 C96.5490347,1.25708287 96.9759642,1.91542541 96.9759642,2.7279116" id="Fill-182" fill="#FCBD00"></path>
                    <path d="M96.3341115,3.12381215 C96.3341115,3.12381215 95.9678405,-0.823259669 92.7264251,0.340607735 C89.0130007,1.6741989 93.5978517,9.11121547 92.030013,12.1539779 C90.4621742,15.1967403 87.5830522,16.829337 87.5830522,16.829337 C87.5830522,16.829337 98.0282392,17.3852486 96.3341115,3.12381215" id="Fill-183" fill="#4F1D00"></path>
                    <path d="M5.39376305,91.2264862 C5.61054244,91.7267072 6.00962867,91.9362099 6.43158611,92.0452707 C6.85321209,92.154 9.0405626,92.7191934 9.0405626,92.7191934 C9.39026025,92.7921215 9.69587279,92.9880331 9.91132632,93.2615138 C10.2169389,93.6483646 9.9335346,94.2258232 9.4469411,94.2258232 L4.94595118,94.2258232 L3.20608108,94.2258232 L2.93361523,94.2258232 L2.63264323,94.2258232 C2.30349653,94.2258232 2.0519131,93.9254917 2.10196461,93.593337 C2.20339351,92.9217348 2.32769362,91.9375359 2.42845957,91.5523425 C4.06060291,91.6534475 5.1905738,91.5682541 5.58866562,91.3272597" id="Fill-184" fill="#000609"></path>
                    <path d="M13.060826,92.0451713 C13.482452,92.1539006 15.6698025,92.7190939 15.6698025,92.7190939 C16.0195001,92.7920221 16.3251127,92.9882652 16.5408976,93.2614144 C16.8465102,93.6482652 16.5627745,94.2257238 16.076181,94.2257238 L11.575191,94.2257238 L9.83532094,94.2257238 L9.5628551,94.2257238 L9.26188309,94.2257238 C8.93273639,94.2257238 8.68115297,93.9253923 8.73120448,93.5932376 C8.83263337,92.9219669 9.05040717,92.1601989 9.15150459,91.775337 C10.7836479,91.8761105 11.8201451,91.5684862 12.218237,91.3271602 C12.4350163,91.8273812 12.6388685,91.9361105 13.060826,92.0451713" id="Fill-185" fill="#032333"></path>
                    <path d="M2.09566674,74.9610497 C2.24880448,83.6918785 2.34327256,89.2562983 2.379071,91.6543094 C3.36054468,92.2228177 4.54123001,92.2228177 5.92145845,91.6543094 L7.99213259,76.1481215 L2.09566674,74.9610497 Z" id="Fill-186" fill="#00374A"></path>
                    <path d="M8.06008331,76.7570718 L8.88974513,92.3139779 C10.3839982,92.6292265 11.5683297,92.4535359 12.4424081,91.7862431 C12.6906768,89.1727624 13.0867798,83.5645856 13.6307171,74.9610497 L8.06008331,76.7570718 Z" id="Fill-187" fill="#00384A"></path>
                    <path d="M2.02466652,66.924 L15.8100461,44.5101878 C16.0162186,44.1750497 16.3818267,43.9708508 16.7752779,43.9708508 L31.680353,43.9708508 C32.3061626,43.9708508 32.8133071,44.4780331 32.8133071,45.1038895 C32.8133071,45.3017901 32.7615982,45.4963757 32.6628211,45.6680884 L19.7936161,68.0819006 C19.5914213,68.4339448 19.2165321,68.6510718 18.8108166,68.6510718 L2.98989832,68.6510718 C2.36408869,68.6510718 1.85661277,68.143558 1.85661277,67.5177017 C1.85661277,67.3078674 1.91495095,67.102674 2.02466652,66.924" id="Fill-188" fill="#DADCE0"></path>
                    <polygon id="Fill-189" fill="#FFFFFF" points="4.0817505 66.9074917 17.1166889 45.7139006 30.6259566 45.7139006 18.4574728 66.9074917"></polygon>
                    <polygon id="Fill-190" fill="#F7A152" points="7.26542441 43.1678453 10.6629608 43.1678453 10.6629608 39.7150276 7.26542441 39.7150276"></polygon>
                    <path d="M10.849875,42.7134365 C13.0054047,42.7134365 14.7528985,40.3250387 14.7528985,37.3787403 C14.7528985,34.4327735 13.0054047,32.0440442 10.849875,32.0440442 C8.69434535,32.0440442 6.94685151,34.4327735 6.94685151,37.3787403 C6.94685151,40.3250387 8.69434535,42.7134365 10.849875,42.7134365" id="Fill-191" fill="#F7A152"></path>
                    <path d="M7.06200314,39.7041215 C6.78754849,38.1364972 6.56811736,36.244674 7.24663024,34.4821326 C7.92547458,32.7192597 11.2146213,29.4709724 14.719553,31.9763867 C18.2248161,34.4821326 15.6635709,38.3808066 14.8816403,39.1687624 C14.131862,39.1710829 14.0201577,38.5800331 13.4934567,38.8777127 C13.159338,39.0663315 12.822899,39.9829061 12.5003816,40.1629061 C12.3064735,40.2706409 11.939871,40.0518564 12.0764354,39.7041215 C12.2133312,39.3563867 13.4059494,37.6392597 12.9531655,37.4072155 C12.5003816,37.1755028 10.8944242,39.9964972 10.1612193,40.4297569 C9.4283458,40.8633481 8.0998262,40.9326298 7.06200314,39.7041215" id="Fill-192" fill="#4F1D00"></path>
                    <path d="M23.7865998,56.6001547 C24.747191,56.5133039 25.32991,56.3833591 25.5347566,56.2096575 C25.8423579,55.9494365 25.9749447,54.6824751 26.3465191,54.6029171 C26.7184251,54.5233591 26.5410903,55.6733039 26.5821922,56.2925304 C26.5964452,56.5083315 26.9093501,56.8348508 26.8871418,57.2432486 C26.8460399,58.0089945 26.1386894,58.9749613 25.2851619,59.0505414 C24.8648618,59.0876685 25.3050499,58.729989 24.998443,58.4734144 C24.4094262,58.6341878 23.5675001,58.3805967 23.423312,58.3186077 C23.2605617,58.2483315 23.3815471,57.6751823 23.7865998,56.6001547" id="Fill-193" fill="#F7A152"></path>
                    <path d="M9.88179261,42.8050608 C11.377703,43.594011 12.5464555,44.5848398 13.3880502,45.7778785 C14.2296448,46.9705856 15.6731834,50.2052818 17.7189975,55.4822983 L24.2028228,56.536442 L24.2028228,59.2712486 C20.047553,59.5990939 17.2062181,59.4658343 15.6788184,58.8718011 C13.3880502,57.9800884 9.0902495,47.0007514 9.22648242,45.2133481 C9.31730437,44.0213039 9.5357411,43.2184309 9.88179261,42.8050608" id="Fill-194" fill="#3E82F8"></path>
                    <path d="M2.28261411,49.2736906 C3.28364434,45.059105 5.30327256,41.6271713 8.00970034,42.1283867 C10.7164596,42.6299337 11.4383946,43.3247403 12.0274114,44.8880552 C12.3744573,45.8096022 14.4689971,57.5268398 15.2373375,79.3525856 C12.8351964,81.037558 3.63002732,81.5321436 0.0223408735,79.3525856 C0.365409183,67.6529171 1.19639686,53.8469503 2.28261411,49.2736906" id="Fill-195" fill="#3E82F8"></path>
                    <path d="M224.356233,92.2452265 C224.249169,103.975061 223.923337,110.259481 223.378737,111.098818 C222.834468,111.938486 222.262356,112.358486 221.662732,112.358486 L221.328614,92.2452265 L224.356233,92.2452265 Z" id="Fill-196" fill="#825A37"></path>
                    <path d="M206.760707,86.7633149 C207.019251,86.459337 206.262512,86.8355801 204.491153,87.8910497 C204.651251,83.0466298 205.280044,78.7345856 206.377531,74.9542541 L204.731135,73.9306077 C201.778427,81.0779006 200.316989,86.4706077 200.347153,90.1093923 C200.357428,91.3773481 201.445303,92.4387845 202.351865,92.7116022 C202.95646,92.8935912 205.106355,92.0260773 208.80188,90.1093923 L206.760707,86.7633149 Z" id="Fill-197" fill="#825A37"></path>
                    <path d="M221.129535,140.530376 L218.773799,140.530376 C217.791662,140.530376 216.99581,141.326619 216.99581,142.308497 C216.99581,143.290707 217.791662,144.08695 218.773799,144.08695 L221.129535,144.08695 C222.111671,144.08695 222.907855,143.290707 222.907855,142.308497 C222.907855,141.326619 222.111671,140.530376 221.129535,140.530376" id="Fill-198" fill="#0D6FEC"></path>
                    <path d="M213.866,140.907182 C214.631025,142.387956 214.822282,143.341657 214.439769,143.767624 C214.057256,144.193591 211.423751,144.193591 206.538922,143.767624 C206.520029,142.363094 207.617847,141.409724 209.83271,140.907182 C212.047572,140.404641 213.392002,140.404641 213.866,140.907182" id="Fill-199" fill="#0D6FEC"></path>
                    <polygon id="Fill-200" fill="#3E82F8" points="222.294077 108.454972 222.294077 141.319392 217.579291 141.319392 215.996205 116.949779 214.09027 141.319392 209.274718 141.319392 208.928667 106.995746"></polygon>
                    <polygon id="Fill-201" fill="#825A37" points="214.578455 83.739116 218.78245 83.739116 218.78245 78.8837569 214.578455 78.8837569"></polygon>
                    <path d="M215.249874,80.7838343 C212.978662,80.3011823 211.596777,77.7496906 212.162922,75.0848287 C212.729399,72.4202983 215.02978,70.6514586 217.30066,71.1341105 C219.571872,71.6167624 220.953758,74.1682541 220.387612,76.833116 C219.821135,79.4976464 217.521086,81.2664862 215.249874,80.7838343" id="Fill-202" fill="#825A37"></path>
                    <path d="M225.498203,93.1367735 C225.053043,89.8792044 224.789527,86.4230718 222.375453,83.957768 C219.961379,81.4924641 213.753997,81.774232 211.655148,82.5999779 C210.255695,83.1505856 208.331529,84.5451713 205.881988,86.7843978 C205.881988,89.194011 206.29367,91.3115801 207.117365,93.1367735 C207.470709,92.916663 208.004039,92.636221 208.717025,92.2947845 L208.129665,110.036221 C210.337567,110.77147 212.733742,111.139094 215.317858,111.139094 C217.902306,111.139094 220.406207,110.77147 222.830225,110.036221 L222.375453,93.1367735 C223.3556,93.4314696 224.396407,93.4314696 225.498203,93.1367735" id="Fill-203" fill="#2DA94F"></path>
                    <path d="M208.711589,68.2140331 L205.425425,68.2140331 C204.768458,68.2140331 204.23579,68.7467403 204.23579,69.4040884 L204.23579,77.2233149 C204.23579,77.8803315 204.768458,78.4130387 205.425425,78.4130387 L208.711589,78.4130387 C209.368556,78.4130387 209.901224,77.8803315 209.901224,77.2233149 L209.901224,69.4040884 C209.901224,68.7467403 209.368556,68.2140331 208.711589,68.2140331" id="Fill-204" fill="#000000"></path>
                    <path d="M208.409854,69.2949282 L205.633819,69.2949282 C205.305335,69.2949282 205.038835,69.5614475 205.038835,69.8899558 L205.038835,76.6324972 C205.038835,76.9610055 205.305335,77.2275249 205.633819,77.2275249 L208.409854,77.2275249 C208.738338,77.2275249 209.004838,76.9610055 209.004838,76.6324972 L209.004838,69.8899558 C209.004838,69.5614475 208.738338,69.2949282 208.409854,69.2949282" id="Fill-205" fill="#3E82F8"></path>
                    <path d="M215.040155,70.9753923 C215.680549,70.6180442 219.019416,69.9301989 220.786466,72.6156133 C222.553517,75.3010276 219.795712,79.9753923 218.092966,79.7910829 C216.39022,79.6067735 215.205888,77.2074365 215.353391,75.3517459 C215.500894,73.4960552 215.071976,72.9219116 214.648692,72.4014696 C214.225078,71.8806961 214.399429,71.3327403 215.040155,70.9753923" id="Fill-206" fill="#1A0E07"></path>
                </g>
            </g>
        </g>
    </g>
</svg>